<?xml version="1.0" encoding="UTF-8" standalone="no"?>
<svg
   width="400"
   height="400"
   version="1.1"
   id="svg40"
   sodipodi:docname="Xi.svg"
   inkscape:version="1.2.1 (9c6d41e410, 2022-07-14)"
   inkscape:export-filename="Xi.png"
   inkscape:export-xdpi="96"
   inkscape:export-ydpi="96"
   xmlns:inkscape="http://www.inkscape.org/namespaces/inkscape"
   xmlns:sodipodi="http://sodipodi.sourceforge.net/DTD/sodipodi-0.dtd"
   xmlns:xlink="http://www.w3.org/1999/xlink"
   xmlns="http://www.w3.org/2000/svg"
   xmlns:svg="http://www.w3.org/2000/svg">
  <defs
     id="defs44">
    <linearGradient
       id="linearGradient4972"
       inkscape:swatch="solid">
      <stop
         style="stop-color:#000000;stop-opacity:1;"
         offset="0"
         id="stop4970" />
    </linearGradient>
    <color-profile
       name="Agfa-:-Swop-Standard"
       xlink:href="../../../../../WINDOWS/system32/spool/drivers/color/RSWOP.icm"
       id="color-profile303" />
  </defs>
  <sodipodi:namedview
     id="namedview42"
     pagecolor="#ffffff"
     bordercolor="#000000"
     borderopacity="0.25"
     inkscape:showpageshadow="2"
     inkscape:pageopacity="0.0"
     inkscape:pagecheckerboard="0"
     inkscape:deskcolor="#d1d1d1"
     showgrid="false"
     inkscape:zoom="1.4796209"
     inkscape:cx="209.85105"
     inkscape:cy="161.52786"
     inkscape:window-width="1920"
     inkscape:window-height="1017"
     inkscape:window-x="-8"
     inkscape:window-y="-8"
     inkscape:window-maximized="1"
     inkscape:current-layer="svg40" />
  <rect
     style="fill:#000000;fill-opacity:1;stroke:none;stroke-width:1.00001;stroke-opacity:1"
     id="rect3668"
     width="400"
     height="400"
     x="0"
     y="0" />
  <path
     d="M 57.299401,20 H 342.69392 v 87.87508 H 332.60581 Q 331.01649,86.105839 318.26874,76.282243 305.52614,66.193705 278.18053,66.193705 H 120.22347 q -50.707034,0 -52.831952,41.681515 H 57.303422 Z M 106.14804,141.32634 H 116.237 q 0,24.42431 11.68085,31.59285 11.68173,7.1681 37.43313,7.1681 h 69.29251 q 26.28271,0 37.6982,-7.1681 11.41664,-7.16783 11.41664,-31.59285 h 9.8223 V 260.5292 h -9.8223 q 0,-21.23909 -9.82317,-29.99952 -9.55723,-9.02652 -39.29155,-9.02652 h -69.29249 q -30.79618,0 -40.08818,9.29217 -9.02652,9.29186 -9.02652,29.73444 H 106.14746 Z M 46.149002,278.84815 h 9.823016 v 6.3723 q 0,20.17736 6.638088,30.53111 6.898739,10.35389 17.522299,13.80519 10.619824,3.18609 33.982825,3.18609 h 174.69273 q 28.9378,0 41.9466,-9.82304 13.00841,-9.82301 13.00841,-37.6982 v -6.37201 h 10.08896 V 380 H 46.148 Z"
     id="path38"
     style="display:inline;fill:#ffffff;fill-opacity:1;stroke:none;stroke-width:1.43286;stroke-opacity:1"
     inkscape:highlight-color="#ffffff"
     sodipodi:insensitive="true" />
</svg>
